<svg width="86" height="86" viewBox="0 0 86 86" fill="none" xmlns="http://www.w3.org/2000/svg">
<path d="M0 20.5077C0 9.18161 9.18161 0 20.5077 0C31.8338 0 41.0154 9.18161 41.0154 20.5077C41.0154 31.8338 31.8338 41.0154 20.5077 41.0154C9.18161 41.0154 0 31.8338 0 20.5077Z" fill="#151515"/>
<path d="M86 65.4923C86 76.8184 76.8184 86 65.4923 86C54.1662 86 44.9846 76.8184 44.9846 65.4923C44.9846 54.1662 54.1662 44.9846 65.4923 44.9846C76.8184 44.9846 86 54.1662 86 65.4923Z" fill="#151515"/>
<path d="M12.0131 56.9977C-0.56749 69.5784 16.4216 86.5675 29.0023 73.9869C41.5829 61.4063 24.5937 44.4171 12.0131 56.9977Z" fill="#151515"/>
<path d="M73.9869 29.0023C86.5675 16.4216 69.5784 -0.56749 56.9977 12.0131C44.4171 24.5937 61.4063 41.5829 73.9869 29.0023Z" fill="#151515"/>
</svg>
