<svg width="86" height="86" viewBox="0 0 86 86" fill="none" xmlns="http://www.w3.org/2000/svg">
<path d="M0 0H14.3333V14.3333H0V0Z" fill="#151515"/>
<path d="M14.3333 14.3333H28.6667V28.6667H14.3333V14.3333Z" fill="#151515"/>
<path d="M0 28.6667H14.3333V43H0V28.6667Z" fill="#151515"/>
<path d="M14.3333 43H28.6667V57.3333H14.3333V43Z" fill="#151515"/>
<path d="M0 57.3333H14.3333V71.6667H0V57.3333Z" fill="#151515"/>
<path d="M14.3333 71.6667H28.6667V86H14.3333V71.6667Z" fill="#151515"/>
<path d="M28.6667 0H43V14.3333H28.6667V0Z" fill="#151515"/>
<path d="M43 14.3333H57.3333V28.6667H43V14.3333Z" fill="#151515"/>
<path d="M28.6667 28.6667H43V43H28.6667V28.6667Z" fill="#151515"/>
<path d="M43 43H57.3333V57.3333H43V43Z" fill="#151515"/>
<path d="M28.6667 57.3333H43V71.6667H28.6667V57.3333Z" fill="#151515"/>
<path d="M43 71.6667H57.3333V86H43V71.6667Z" fill="#151515"/>
<path d="M57.3333 0H71.6667V14.3333H57.3333V0Z" fill="#151515"/>
<path d="M71.6667 14.3333H86V28.6667H71.6667V14.3333Z" fill="#151515"/>
<path d="M57.3333 28.6667H71.6667V43H57.3333V28.6667Z" fill="#151515"/>
<path d="M71.6667 43H86V57.3333H71.6667V43Z" fill="#151515"/>
<path d="M57.3333 57.3333H71.6667V71.6667H57.3333V57.3333Z" fill="#151515"/>
<path d="M71.6667 71.6667H86V86H71.6667V71.6667Z" fill="#151515"/>
</svg>
